<svg xmlns="http://www.w3.org/2000/svg" viewBox="-15 -25 45 45" width="500" height="500" shape-rendering="crispEdges">
  <!-- clawd coffee head flip loop
       4s loop:
       - cup flips front -> side/core -> back, lands on head
       v3 detail pass:
       - eyes squint, look up, blink on soft landings
       - warmer two-layer steam remains visible on light backgrounds
       - larger coffee flecks appear only during the aerial flip
       - short hold
       - cup flips back -> front, returns to the starting frame -->
  <!-- 创意来自于 朝灯 (GitHub: @chaodeng060-source · https://github.com/chaodeng060-source) -->

  <defs>
    <style>
      .ground-shadow {
        transform-origin: 7.5px 15.5px;
        animation: ground-shadow 4s infinite ease-in-out;
      }

      .clawd-jump {
        transform-origin: 7.5px 15px;
        animation: clawd-jump 4s infinite ease-in-out;
      }

      .body-squash {
        transform-origin: 7.5px 15px;
        animation: body-squash 4s infinite ease-in-out;
      }

      .left-arm-swing {
        transform-origin: 2px 9px;
        animation: left-arm-swing 4s infinite ease-in-out;
      }

      .right-arm-swing {
        transform-origin: 13px 9px;
        animation: right-arm-swing 4s infinite ease-in-out;
      }

      .head-cup-shadow {
        transform-origin: 7.575px 6.14px;
        animation: head-cup-shadow 4s infinite ease-in-out;
      }

      .cup-flight {
        transform-origin: 7.5px 6.1px;
        animation: cup-flight 4s infinite ease-in-out;
      }

      .cup-tilt {
        transform-box: fill-box;
        transform-origin: 50% 85%;
        animation: cup-tilt 4s infinite ease-in-out;
      }

      .cup-flip {
        transform-box: fill-box;
        transform-origin: 50% 50%;
        animation: cup-flip 4s infinite ease-in-out;
      }

      .cup-front-face {
        animation-name: cup-front-face;
        animation-duration: 4s;
        animation-iteration-count: infinite;
        animation-timing-function: step-end;
      }

      .cup-back-face {
        animation-name: cup-back-face;
        animation-duration: 4s;
        animation-iteration-count: infinite;
        animation-timing-function: step-end;
      }

      .cup-side-face {
        animation-name: cup-side-face;
        animation-duration: 4s;
        animation-iteration-count: infinite;
        animation-timing-function: step-end;
      }

      .eyes-follow {
        transform-origin: 7.5px 9px;
        animation: eyes-follow 4s infinite ease-in-out;
      }

      .left-eye-life {
        transform-origin: 4.5px 9px;
        animation: left-eye-life 4s infinite ease-in-out;
      }

      .right-eye-life {
        transform-origin: 10.5px 9px;
        animation: right-eye-life 4s infinite ease-in-out;
      }

      .steam {
        animation: steam-visible 4s infinite ease-in-out;
      }

      .steam-shadow {
        animation: steam-shadow-visible 4s infinite ease-in-out;
      }

      .steam-wisp-left {
        animation: steam-wisp-left 4s infinite ease-in-out;
      }

      .steam-wisp-right {
        animation: steam-wisp-right 4s infinite ease-in-out;
      }

      .coffee-fleck-a {
        animation: coffee-fleck-a 4s infinite ease-out;
      }

      .coffee-fleck-b {
        animation: coffee-fleck-b 4s infinite ease-out;
      }

      .coffee-fleck-c {
        animation: coffee-fleck-c 4s infinite ease-out;
      }

      .coffee-fleck-d {
        animation: coffee-fleck-d 4s infinite ease-out;
      }

      @keyframes ground-shadow {
        0%, 8%, 50%, 58%, 100% { transform: scaleX(1); opacity: 0.5; }
        12%, 62%               { transform: scaleX(1.05); opacity: 0.52; }
        30%, 80%               { transform: scaleX(0.72); opacity: 0.28; }
        42%, 92%               { transform: scaleX(1.08); opacity: 0.56; }
      }

      @keyframes clawd-jump {
        0%, 8%     { transform: translateY(0); }
        12%        { transform: translateY(0.28px); }
        19%        { transform: translateY(-1.05px); }
        30%        { transform: translateY(-1.55px); }
        36%        { transform: translateY(-0.95px); }
        42%        { transform: translateY(0.18px); }
        47%, 58%   { transform: translateY(0); }
        62%        { transform: translateY(0.28px); }
        69%        { transform: translateY(-1.05px); }
        80%        { transform: translateY(-1.55px); }
        86%        { transform: translateY(-0.95px); }
        92%        { transform: translateY(0.18px); }
        97%, 100%  { transform: translateY(0); }
      }

      @keyframes body-squash {
        0%, 8%     { transform: scale(1, 1); }
        12%        { transform: scale(1.04, 0.94); }
        19%        { transform: scale(0.98, 1.04); }
        30%, 36%   { transform: scale(1, 1); }
        42%        { transform: scale(1.035, 0.95); }
        47%        { transform: scale(0.99, 1.025); }
        50%, 58%   { transform: scale(1, 1); }
        62%        { transform: scale(1.04, 0.94); }
        69%        { transform: scale(0.98, 1.04); }
        80%, 86%   { transform: scale(1, 1); }
        92%        { transform: scale(1.035, 0.95); }
        97%        { transform: scale(0.99, 1.025); }
        100%       { transform: scale(1, 1); }
      }

      @keyframes left-arm-swing {
        0%, 8%     { transform: translate(0, 0) rotate(0deg); }
        12%, 16%   { transform: translate(-0.65px, 0.5px) rotate(10deg); }
        22%, 34%   { transform: translate(-0.25px, -0.25px) rotate(-5deg); }
        42%        { transform: translate(-0.35px, 0.35px) rotate(7deg); }
        50%, 58%   { transform: translate(0, 0) rotate(0deg); }
        62%, 66%   { transform: translate(-0.65px, 0.5px) rotate(10deg); }
        72%, 84%   { transform: translate(-0.25px, -0.25px) rotate(-5deg); }
        92%        { transform: translate(-0.35px, 0.35px) rotate(7deg); }
        100%       { transform: translate(0, 0) rotate(0deg); }
      }

      @keyframes right-arm-swing {
        0%, 8%     { transform: translate(0, 0) rotate(0deg); }
        12%, 16%   { transform: translate(0.65px, 0.5px) rotate(-10deg); }
        22%, 34%   { transform: translate(0.25px, -0.25px) rotate(5deg); }
        42%        { transform: translate(0.35px, 0.35px) rotate(-7deg); }
        50%, 58%   { transform: translate(0, 0) rotate(0deg); }
        62%, 66%   { transform: translate(0.65px, 0.5px) rotate(-10deg); }
        72%, 84%   { transform: translate(0.25px, -0.25px) rotate(5deg); }
        92%        { transform: translate(0.35px, 0.35px) rotate(-7deg); }
        100%       { transform: translate(0, 0) rotate(0deg); }
      }

      @keyframes head-cup-shadow {
        0%, 12%    { opacity: 0.14; transform: scaleX(1); }
        18%, 38%   { opacity: 0; transform: scaleX(0.65); }
        44%, 62%   { opacity: 0.14; transform: scaleX(1); }
        68%, 88%   { opacity: 0; transform: scaleX(0.65); }
        94%, 100%  { opacity: 0.14; transform: scaleX(1); }
      }

      @keyframes cup-flight {
        0%, 8%     { transform: translateY(0); }
        12%        { transform: translateY(0.2px); }
        19%        { transform: translateY(-2.6px); }
        30%        { transform: translateY(-7.5px); }
        36%        { transform: translateY(-5.8px); }
        42%        { transform: translateY(0.22px); }
        47%, 58%   { transform: translateY(0); }
        62%        { transform: translateY(0.2px); }
        69%        { transform: translateY(-2.6px); }
        80%        { transform: translateY(-7.5px); }
        86%        { transform: translateY(-5.8px); }
        92%        { transform: translateY(0.22px); }
        97%, 100%  { transform: translateY(0); }
      }

      @keyframes cup-tilt {
        0%, 10%    { transform: rotate(0deg); }
        20%        { transform: rotate(-9deg); }
        30%        { transform: rotate(0deg); }
        38%        { transform: rotate(7deg); }
        47%, 60%   { transform: rotate(0deg); }
        70%        { transform: rotate(9deg); }
        80%        { transform: rotate(0deg); }
        88%        { transform: rotate(-7deg); }
        97%, 100%  { transform: rotate(0deg); }
      }

      @keyframes cup-flip {
        0%, 21%    { transform: scaleX(1); }
        26%        { transform: scaleX(0.97); }
        30%        { transform: scaleX(0.9); }
        34%        { transform: scaleX(0.97); }
        41%, 71%   { transform: scaleX(1); }
        76%        { transform: scaleX(0.97); }
        80%        { transform: scaleX(0.9); }
        84%        { transform: scaleX(0.97); }
        91%, 100%  { transform: scaleX(1); }
      }

      @keyframes cup-front-face {
        0%, 25.49%    { opacity: 1; }
        25.5%, 84.49% { opacity: 0; }
        84.5%, 100%   { opacity: 1; }
      }

      @keyframes cup-back-face {
        0%, 34.49%    { opacity: 0; }
        34.5%, 75.49% { opacity: 1; }
        75.5%, 100%   { opacity: 0; }
      }

      @keyframes cup-side-face {
        0%, 25.49%    { opacity: 0; }
        25.5%, 34.49% { opacity: 1; }
        34.5%, 75.49% { opacity: 0; }
        75.5%, 84.49% { opacity: 1; }
        84.5%, 100%   { opacity: 0; }
      }

      @keyframes eyes-follow {
        0%, 8%     { transform: translate(0, 0); }
        12%        { transform: translate(0, 0.12px); }
        19%        { transform: translate(0.18px, -0.42px); }
        26%        { transform: translate(-0.15px, -0.62px); }
        30%        { transform: translate(0, -0.72px); }
        36%        { transform: translate(0.15px, -0.55px); }
        42%        { transform: translate(0, -0.1px); }
        45%, 58%   { transform: translate(0, 0); }
        62%        { transform: translate(0, 0.12px); }
        69%        { transform: translate(-0.18px, -0.42px); }
        76%        { transform: translate(0.15px, -0.62px); }
        80%        { transform: translate(0, -0.72px); }
        86%        { transform: translate(-0.15px, -0.55px); }
        92%        { transform: translate(0, -0.1px); }
        95%, 100%  { transform: translate(0, 0); }
      }

      @keyframes left-eye-life {
        0%, 8%      { transform: scaleY(1); }
        12%         { transform: scaleY(0.7); }
        15%, 40.8%  { transform: scaleY(1); }
        42%         { transform: scaleY(0.14); }
        43.5%, 58%  { transform: scaleY(1); }
        62%         { transform: scaleY(0.7); }
        65%, 90.8%  { transform: scaleY(1); }
        92%         { transform: scaleY(0.14); }
        93.5%, 100% { transform: scaleY(1); }
      }

      @keyframes right-eye-life {
        0%, 8.5%    { transform: scaleY(1); }
        12.8%       { transform: scaleY(0.62); }
        15.5%, 41.3% { transform: scaleY(1); }
        42.6%       { transform: scaleY(0.12); }
        44.2%, 58.5% { transform: scaleY(1); }
        62.8%       { transform: scaleY(0.62); }
        65.5%, 91.3% { transform: scaleY(1); }
        92.6%       { transform: scaleY(0.12); }
        94.2%, 100% { transform: scaleY(1); }
      }

      @keyframes steam-visible {
        0%, 11%    { opacity: 0.82; }
        15%, 39%   { opacity: 0; }
        46%, 61%   { opacity: 0.78; }
        65%, 89%   { opacity: 0; }
        96%, 100%  { opacity: 0.82; }
      }

      @keyframes steam-shadow-visible {
        0%, 11%    { opacity: 0.34; }
        15%, 39%   { opacity: 0; }
        46%, 61%   { opacity: 0.3; }
        65%, 89%   { opacity: 0; }
        96%, 100%  { opacity: 0.34; }
      }

      @keyframes steam-wisp-left {
        0%         { transform: translate(0, 0); opacity: 0; }
        5%         { transform: translate(-0.15px, -0.45px); opacity: 1; }
        11%        { transform: translate(-0.35px, -1.2px); opacity: 0; }
        46%        { transform: translate(0, 0); opacity: 0; }
        52%        { transform: translate(-0.15px, -0.45px); opacity: 1; }
        61%        { transform: translate(-0.35px, -1.2px); opacity: 0; }
        96%        { transform: translate(0, 0); opacity: 0; }
        100%       { transform: translate(-0.18px, -0.55px); opacity: 0.75; }
      }

      @keyframes steam-wisp-right {
        0%         { transform: translate(0, -0.1px); opacity: 0.35; }
        6%         { transform: translate(0.18px, -0.7px); opacity: 1; }
        12%        { transform: translate(0.34px, -1.35px); opacity: 0; }
        46%        { transform: translate(0, -0.1px); opacity: 0.25; }
        54%        { transform: translate(0.18px, -0.7px); opacity: 1; }
        62%        { transform: translate(0.34px, -1.35px); opacity: 0; }
        96%        { transform: translate(0, -0.1px); opacity: 0; }
        100%       { transform: translate(0.18px, -0.7px); opacity: 0.8; }
      }

      @keyframes coffee-fleck-a {
        0%, 25%    { opacity: 0; transform: translate(0, 0) scale(0.55); }
        29%        { opacity: 1; transform: translate(-0.75px, -0.65px) scale(1); }
        36%        { opacity: 0; transform: translate(-2px, -1.75px) scale(0.55); }
        37%, 75%   { opacity: 0; transform: translate(0, 0) scale(0.4); }
        79%        { opacity: 1; transform: translate(0.75px, -0.65px) scale(1); }
        86%        { opacity: 0; transform: translate(1.95px, -1.7px) scale(0.55); }
        87%, 100%  { opacity: 0; transform: translate(0, 0) scale(0.4); }
      }

      @keyframes coffee-fleck-b {
        0%, 27%    { opacity: 0; transform: translate(0, 0) scale(0.45); }
        31%        { opacity: 0.95; transform: translate(0.95px, -0.35px) scale(1); }
        37%        { opacity: 0; transform: translate(2.15px, -1.15px) scale(0.5); }
        38%, 77%   { opacity: 0; transform: translate(0, 0) scale(0.35); }
        81%        { opacity: 0.9; transform: translate(-0.95px, -0.35px) scale(1); }
        87%        { opacity: 0; transform: translate(-2.1px, -1.15px) scale(0.5); }
        88%, 100%  { opacity: 0; transform: translate(0, 0) scale(0.35); }
      }

      @keyframes coffee-fleck-c {
        0%, 28%    { opacity: 0; transform: translate(0, 0) scale(0.38); }
        32%        { opacity: 0.78; transform: translate(0.1px, -0.95px) scale(1); }
        36%        { opacity: 0; transform: translate(0.3px, -1.75px) scale(0.45); }
        37%, 78%   { opacity: 0; transform: translate(0, 0) scale(0.3); }
        82%        { opacity: 0.74; transform: translate(-0.1px, -0.95px) scale(1); }
        86%        { opacity: 0; transform: translate(-0.3px, -1.75px) scale(0.45); }
        87%, 100%  { opacity: 0; transform: translate(0, 0) scale(0.3); }
      }

      @keyframes coffee-fleck-d {
        0%, 26%    { opacity: 0; transform: translate(0, 0) scale(0.35); }
        30%        { opacity: 0.82; transform: translate(-0.25px, -0.9px) scale(1); }
        35%        { opacity: 0; transform: translate(-0.55px, -1.85px) scale(0.45); }
        36%, 76%   { opacity: 0; transform: translate(0, 0) scale(0.35); }
        80%        { opacity: 0.78; transform: translate(0.25px, -0.9px) scale(1); }
        85%        { opacity: 0; transform: translate(0.55px, -1.85px) scale(0.45); }
        86%, 100%  { opacity: 0; transform: translate(0, 0) scale(0.35); }
      }
    </style>

    <g id="cup-front-shape" shape-rendering="auto">
      <path
        d="M2.95 2.05
           C1.45 2.05 0.65 2.9 0.65 4
           C0.65 5.1 1.45 5.95 2.95 5.95
           L2.95 4.9
           C2.15 4.9 1.75 4.55 1.75 4
           C1.75 3.45 2.15 3.1 2.95 3.1
           Z"
        fill="#D7D7DC"/>
      <path
        d="M2.65 2.45
           C1.55 2.55 1.05 3.15 1.05 4
           C1.05 4.85 1.55 5.45 2.65 5.55
           L2.65 4.9
           C2.1 4.78 1.8 4.45 1.8 4
           C1.8 3.55 2.1 3.22 2.65 3.1
           Z"
        fill="#AFAFB8"
        opacity="0.55"/>
      <path
        d="M2.55 1.65
           H8.65
           C9.05 1.65 9.35 1.95 9.3 2.35
           L8.8 6.45
           C8.7 7.15 8.2 7.5 7.5 7.5
           H3.9
           C3.2 7.5 2.7 7.15 2.6 6.45
           L2.1 2.35
           C2.05 1.95 2.35 1.65 2.55 1.65
           Z"
        fill="#D7D7DC"/>
      <path
        d="M2.62 0.97
           H8.78
           C9.23 0.97 9.58 1.27 9.58 1.62
           C9.58 1.97 9.23 2.27 8.78 2.27
           H2.62
           C2.17 2.27 1.82 1.97 1.82 1.62
           C1.82 1.27 2.17 0.97 2.62 0.97
           Z"
        fill="#F4F4F6"/>
      <path
        d="M2.8 1.12
           H8.6
           C8.9 1.12 9.15 1.28 9.15 1.48
           C9.15 1.68 8.9 1.84 8.6 1.84
           H2.8
           C2.5 1.84 2.25 1.68 2.25 1.48
           C2.25 1.28 2.5 1.12 2.8 1.12
           Z"
        fill="#3A1F14"/>
      <g transform="translate(5.65 4.72) scale(2)" opacity="0.78">
        <g stroke="#D97757" stroke-width="0.18" stroke-linecap="round">
          <line x1="0" y1="-0.28" x2="0" y2="-0.82"/>
          <line x1="0" y1="-0.28" x2="0" y2="-0.82" transform="rotate(30)"/>
          <line x1="0" y1="-0.28" x2="0" y2="-0.82" transform="rotate(60)"/>
          <line x1="0" y1="-0.28" x2="0" y2="-0.82" transform="rotate(90)"/>
          <line x1="0" y1="-0.28" x2="0" y2="-0.82" transform="rotate(120)"/>
          <line x1="0" y1="-0.28" x2="0" y2="-0.82" transform="rotate(150)"/>
          <line x1="0" y1="-0.28" x2="0" y2="-0.82" transform="rotate(180)"/>
          <line x1="0" y1="-0.28" x2="0" y2="-0.82" transform="rotate(210)"/>
          <line x1="0" y1="-0.28" x2="0" y2="-0.82" transform="rotate(240)"/>
          <line x1="0" y1="-0.28" x2="0" y2="-0.82" transform="rotate(270)"/>
          <line x1="0" y1="-0.28" x2="0" y2="-0.82" transform="rotate(300)"/>
          <line x1="0" y1="-0.28" x2="0" y2="-0.82" transform="rotate(330)"/>
        </g>
        <circle cx="0" cy="0" r="0.24" fill="#D97757"/>
      </g>
    </g>

    <g id="cup-side-shape" shape-rendering="auto">
      <path
        d="M3.05 1.65
           H8.35
           C8.75 1.65 9.02 1.95 8.96 2.35
           L8.46 6.45
           C8.36 7.15 7.86 7.5 7.16 7.5
           H4.24
           C3.54 7.5 3.04 7.15 2.94 6.45
           L2.44 2.35
           C2.38 1.95 2.65 1.65 3.05 1.65
           Z"
        fill="#D7D7DC"/>
      <path
        d="M7.36 1.78
           H8.28
           C8.56 1.78 8.73 2 8.68 2.32
           L8.2 6.25
           C8.12 6.86 7.78 7.16 7.22 7.22
           H6.54
           C6.94 5.82 7.2 3.5 7.36 1.78
           Z"
        fill="#AFAFB8"
        opacity="0.52"/>
      <path
        d="M2.82 0.97
           H8.58
           C9.03 0.97 9.38 1.27 9.38 1.62
           C9.38 1.97 9.03 2.27 8.58 2.27
           H2.82
           C2.37 2.27 2.02 1.97 2.02 1.62
           C2.02 1.27 2.37 0.97 2.82 0.97
           Z"
        fill="#F4F4F6"/>
      <path
        d="M3.1 1.12
           H8.3
           C8.6 1.12 8.85 1.28 8.85 1.48
           C8.85 1.68 8.6 1.84 8.3 1.84
           H3.1
           C2.8 1.84 2.55 1.68 2.55 1.48
           C2.55 1.28 2.8 1.12 3.1 1.12
           Z"
        fill="#3A1F14"/>
      <path
        d="M3.2 2.25
           L3.62 6.2
           C3.68 6.65 3.98 6.92 4.48 6.98"
        fill="none"
        stroke="#FFFFFF"
        stroke-width="0.2"
        stroke-linecap="round"
        opacity="0.2"/>
    </g>

    <g id="cup-back-shape" shape-rendering="auto">
      <g transform="translate(11.4 0) scale(-1 1)">
        <path
          d="M2.95 2.05
             C1.45 2.05 0.65 2.9 0.65 4
             C0.65 5.1 1.45 5.95 2.95 5.95
             L2.95 4.9
             C2.15 4.9 1.75 4.55 1.75 4
             C1.75 3.45 2.15 3.1 2.95 3.1
             Z"
          fill="#D7D7DC"/>
        <path
          d="M2.65 2.45
             C1.55 2.55 1.05 3.15 1.05 4
             C1.05 4.85 1.55 5.45 2.65 5.55
             L2.65 4.9
             C2.1 4.78 1.8 4.45 1.8 4
             C1.8 3.55 2.1 3.22 2.65 3.1
             Z"
          fill="#AFAFB8"
          opacity="0.55"/>
        <path
          d="M2.55 1.65
             H8.65
             C9.05 1.65 9.35 1.95 9.3 2.35
             L8.8 6.45
             C8.7 7.15 8.2 7.5 7.5 7.5
             H3.9
             C3.2 7.5 2.7 7.15 2.6 6.45
             L2.1 2.35
             C2.05 1.95 2.35 1.65 2.55 1.65
             Z"
          fill="#D7D7DC"/>
        <path
          d="M2.62 0.97
             H8.78
             C9.23 0.97 9.58 1.27 9.58 1.62
             C9.58 1.97 9.23 2.27 8.78 2.27
             H2.62
             C2.17 2.27 1.82 1.97 1.82 1.62
             C1.82 1.27 2.17 0.97 2.62 0.97
             Z"
          fill="#F4F4F6"/>
        <path
          d="M2.8 1.12
             H8.6
             C8.9 1.12 9.15 1.28 9.15 1.48
             C9.15 1.68 8.9 1.84 8.6 1.84
             H2.8
             C2.5 1.84 2.25 1.68 2.25 1.48
             C2.25 1.28 2.5 1.12 2.8 1.12
             Z"
          fill="#3A1F14"/>
      </g>
      <g transform="translate(3.78 2.78) scale(0.012)">
        <path d="m297.06 130.97c7.26-21.79 4.76-45.66-6.85-65.48-17.46-30.4-52.56-46.04-86.84-38.68-15.25-17.18-37.16-26.95-60.13-26.81-35.04-.08-66.13 22.48-76.91 55.82-22.51 4.61-41.94 18.7-53.31 38.67-17.59 30.32-13.58 68.54 9.92 94.54-7.26 21.79-4.76 45.66 6.85 65.48 17.46 30.4 52.56 46.04 86.84 38.68 15.24 17.18 37.16 26.95 60.13 26.8 35.06.09 66.16-22.49 76.94-55.86 22.51-4.61 41.94-18.7 53.31-38.67 17.57-30.32 13.55-68.51-9.94-94.51zm-120.28 168.11c-14.03.02-27.62-4.89-38.39-13.88.49-.26 1.34-.73 1.89-1.07l63.72-36.8c3.26-1.85 5.26-5.32 5.24-9.07v-89.83l26.93 15.55c.29.14.48.42.52.74v74.39c-.04 33.08-26.83 59.9-59.91 59.97zm-128.84-55.03c-7.03-12.14-9.56-26.37-7.15-40.18.47.28 1.3.79 1.89 1.13l63.72 36.8c3.23 1.89 7.23 1.89 10.47 0l77.79-44.92v31.1c.02.32-.13.63-.38.83l-64.41 37.19c-28.69 16.52-65.33 6.7-81.92-21.95zm-16.77-139.09c7-12.16 18.05-21.46 31.21-26.29 0 .55-.03 1.52-.03 2.2v73.61c-.02 3.74 1.98 7.21 5.23 9.06l77.79 44.91-26.93 15.55c-.27.18-.61.21-.91.08l-64.42-37.22c-28.63-16.58-38.45-53.21-21.95-81.89zm221.26 51.49-77.79-44.92 26.93-15.54c.27-.18.61-.21.91-.08l64.42 37.19c28.68 16.57 38.51 53.26 21.94 81.94-7.01 12.14-18.05 21.44-31.2 26.28v-75.81c.03-3.74-1.96-7.2-5.2-9.06zm26.8-40.34c-.47-.29-1.3-.79-1.89-1.13l-63.72-36.8c-3.23-1.89-7.23-1.89-10.47 0l-77.79 44.92v-31.1c-.02-.32.13-.63.38-.83l64.41-37.16c28.69-16.55 65.37-6.7 81.91 22 6.99 12.12 9.52 26.31 7.15 40.1zm-168.51 55.43-26.94-15.55c-.29-.14-.48-.42-.52-.74v-74.39c.02-33.12 26.89-59.96 60.01-59.94 14.01 0 27.57 4.92 38.34 13.88-.49.26-1.33.73-1.89 1.07l-63.72 36.8c-3.26 1.85-5.26 5.31-5.24 9.06l-.04 89.79zm14.63-31.54 34.65-20.01 34.65 20v40.01l-34.65 20-34.65-20z" fill="#2F9E83"/>
      </g>
    </g>
  </defs>

  <rect class="ground-shadow" x="3" y="15" width="9" height="1" fill="#000000"/>

  <g class="clawd-jump">
    <g class="body-squash">
      <g id="body-color-group" fill="#DE886D">
        <rect id="torso" x="2" y="6" width="11" height="7"/>

        <g class="left-arm-swing">
          <rect id="left-arm" x="0" y="9" width="2" height="2"/>
        </g>
        <g class="right-arm-swing">
          <rect id="right-arm" x="13" y="9" width="2" height="2"/>
        </g>

        <rect id="outer-left-leg" x="3" y="13" width="1" height="2"/>
        <rect id="inner-left-leg" x="5" y="13" width="1" height="2"/>
        <rect id="inner-right-leg" x="9" y="13" width="1" height="2"/>
        <rect id="outer-right-leg" x="11" y="13" width="1" height="2"/>
      </g>

      <g class="eyes-follow" id="eyes-color-group" fill="#000000">
        <rect class="left-eye-life" id="left-eye" x="4" y="8" width="1" height="2"/>
        <rect class="right-eye-life" id="right-eye" x="10" y="8" width="1" height="2"/>
      </g>

      <rect class="head-cup-shadow" id="coffee-cup-shadow" x="6.3" y="6" width="2.55" height="0.28" fill="#000000"/>
    </g>
  </g>

  <g class="cup-flight">
    <g transform="translate(4.4 2) scale(0.55)">
      <g class="steam-shadow" fill="none" stroke="#8A7469" stroke-width="0.42" stroke-linecap="round">
        <path class="steam-wisp-left" d="M4.45 0.55 C4.0 -0.05 4.85 -0.42 4.35 -1.05"/>
        <path class="steam-wisp-right" d="M6.95 0.5 C7.45 -0.08 6.62 -0.48 7.15 -1.15"/>
      </g>
      <g class="steam" fill="none" stroke="#FFF2E6" stroke-width="0.18" stroke-linecap="round">
        <path class="steam-wisp-left" d="M4.45 0.55 C4.0 -0.05 4.85 -0.42 4.35 -1.05"/>
        <path class="steam-wisp-right" d="M6.95 0.5 C7.45 -0.08 6.62 -0.48 7.15 -1.15"/>
      </g>
      <g class="cup-tilt">
        <g class="cup-flip">
          <g class="cup-front-face">
            <use href="#cup-front-shape"/>
          </g>
          <g class="cup-side-face">
            <use href="#cup-side-shape"/>
          </g>
          <g class="cup-back-face">
            <use href="#cup-back-shape"/>
          </g>
        </g>
      </g>
      <g fill="#5A2A1B">
        <rect class="coffee-fleck-a" x="4.75" y="0.68" width="0.58" height="0.58"/>
        <rect class="coffee-fleck-b" x="6.05" y="0.58" width="0.48" height="0.48"/>
        <rect class="coffee-fleck-c" x="5.48" y="0.45" width="0.38" height="0.38"/>
        <rect class="coffee-fleck-d" x="5.15" y="0.5" width="0.32" height="0.32"/>
      </g>
    </g>
  </g>
</svg>
